HIERARCHY
ROOT pelvis
{
  OFFSET 0 100 0
  CHANNELS 6 Xposition Yposition Zposition Zrotation Xrotation Yrotation
  JOINT pelvis_right_femur
  {
    OFFSET -10.78128 -3.44521 -0.5502486
    CHANNELS 3 Zrotation Xrotation Yrotation
    JOINT right_femur_tibia
    {
      OFFSET -0.8047443 -44.0398 -0.1307829
      CHANNELS 3 Zrotation Xrotation Yrotation
      JOINT right_tibia_foot
      {
        OFFSET 3.006224 -47.83518 -5
        CHANNELS 3 Zrotation Xrotation Yrotation
        End Site
        {
          OFFSET 0 -5 15
        }
      }
    }
  }
  JOINT pelvis_left_femur
  {
    OFFSET 10.78128 -3.44521 -0.5502486
    CHANNELS 3 Zrotation Xrotation Yrotation
    JOINT left_femur_tibia
    {
      OFFSET 0.8047443 -44.0398 -0.1307829
      CHANNELS 3 Zrotation Xrotation Yrotation
      JOINT left_tibia_foot
      {
        OFFSET -4.370144 -48.10324 -4.275266
        CHANNELS 3 Zrotation Xrotation Yrotation
        End Site
        {
          OFFSET 0 -5 15
        }
      }
    }
  }
  JOINT pelvis_spine1
  {
    OFFSET 0 6.468898 -3.129235
    CHANNELS 3 Zrotation Xrotation Yrotation
    JOINT spine1
    {
      OFFSET 0 23.15396 4.99043
      CHANNELS 3 Zrotation Xrotation Yrotation
      JOINT spine2
      {
        OFFSET 0 20.79997 -5.064912
        CHANNELS 3 Zrotation Xrotation Yrotation
        JOINT neck
        {
          OFFSET 0 14.38658 9.616178
          CHANNELS 3 Zrotation Xrotation Yrotation
          End Site
          {
            OFFSET 0 20 0
          }
        }
      }
      JOINT right_manubrium
      {
        OFFSET -5.722621 16.35077 3.967754
        CHANNELS 3 Zrotation Xrotation Yrotation
        JOINT right_clavicle
        {
          OFFSET -13.16364 1.694482 -4.693211
          CHANNELS 3 Zrotation Xrotation Yrotation
          JOINT right_humerus
          {
            OFFSET -28.5034 -0.3100689 -2.792744
            CHANNELS 3 Zrotation Xrotation Yrotation
            JOINT right_radius
            {
              OFFSET -25.15693 0.02248979 -1.271978
              CHANNELS 3 Zrotation Xrotation Yrotation
              End Site
              {
                OFFSET -15 0 0
              }
            }
          }
        }
      }
      JOINT left_manubrium
      {
        OFFSET 5.722621 16.35077 3.967754
        CHANNELS 3 Zrotation Xrotation Yrotation
        JOINT left_clavicle
        {
          OFFSET 13.16364 1.694482 -4.693211
          CHANNELS 3 Zrotation Xrotation Yrotation
          JOINT left_humerus
          {
            OFFSET 29.39168 -1.063119 -2.237045
            CHANNELS 3 Zrotation Xrotation Yrotation
            JOINT left_radius
            {
              OFFSET 24.59957 -0.9528479 0.9047498
              CHANNELS 3 Zrotation Xrotation Yrotation
              End Site
              {
                OFFSET 15 -0 -0
              }
            }
          }
        }
      }
    }
  }
}
MOTION
Frames: 7
Frame Time: 0.0416666666667
-1492.247 97.08551 2003.291 -7.691443 1.724818 -95.89655 4.322181 17.99115 -0.3456431 -0 17.961 -0 -10.18635 -14.04224 -0.4597271 2.200337 -18.71815 -5.991118 -0 9.341823 -0 -0.4923497 -2.157444 17.82028 -5.195945 -5.290082 8.159429 0.8324035 12.88106 -7.552109 -0.4479125 21.50124 8.375935 6.830407 -18.34996 6.025654 5.686202 -22.76542 11.04897 86.66313 37.81586 -19.80714 -0 0 19.85285 -9.381333 5.360301 1.28372 8.57924 -25.98825 -4.15608 -93.26033 15.1244 22.86007 0 0 -14.4891 18.37509 11.73801 -8.204952
-1498.774 96.69602 2003.848 -8.113813 1.13228 -96.4897 2.412787 20.21683 -0.8861168 -0 22.44539 -0 -11.04032 -11.35652 0.6182461 0.0129073 -17.50858 -8.753638 -0 10.49406 -0 -1.791617 -3.135697 18.94342 -5.195487 -5.289968 8.158572 0.8331297 12.87989 -7.552938 -0.4476271 21.50048 8.376102 6.82946 -18.35238 6.027043 5.686 -22.76498 11.04937 86.66316 37.8151 -19.8074 -0 0 19.85265 -9.380957 5.361293 1.284063 8.579963 -25.98757 -4.153387 -93.26021 15.1254 22.85911 0 0 -14.48949 18.37433 11.73973 -8.204922
-1505.511 96.73834 2004.328 -8.880395 0.2872697 -96.92168 0.3308694 22.06424 -1.533109 -0 28.12866 -0 -12.39992 -6.272723 2.039049 -2.413731 -15.87556 -11.73793 -0 12.89417 -0 -2.721745 -4.501853 20.30947 -5.194241 -5.289616 8.156659 0.8348539 12.87684 -7.555195 -0.4474115 21.49838 8.376952 6.827672 -18.35757 6.029734 5.685041 -22.76414 11.05068 86.66319 37.81233 -19.80774 -0 0 19.85284 -9.381174 5.363189 1.284968 8.581967 -25.98664 -4.146763 -93.25979 15.1258 22.85738 0 0 -14.48948 18.37253 11.74389 -8.205602
-1512.296 97.27344 2004.71 -9.697615 -0.5410381 -97.05439 -1.457364 22.33855 -1.994683 -0 35.28134 -0 -13.9205 0.6717476 3.597052 -4.504343 -13.60978 -14.12679 -0 15.42059 -0 -2.844739 -5.849294 21.41406 -5.192264 -5.289053 8.153791 0.837495 12.87202 -7.558786 -0.4472919 21.49502 8.378452 6.825137 -18.36524 6.033576 5.683363 -22.76294 11.05285 86.66318 37.80762 -19.80813 -0 0 19.85347 -9.382004 5.365873 1.286394 8.58516 -25.98552 -4.136508 -93.25912 15.12552 22.85502 0 0 -14.48899 18.36977 11.75033 -8.206952
-1518.919 98.30534 2005.01 -10.35116 -1.023179 -96.81015 -2.454776 20.02332 -2.239578 -0 43.43245 -0 -15.30738 7.792728 4.889313 -5.788919 -10.54648 -15.32498 -0 17.21166 -0 -2.106882 -6.968984 21.91786 -5.18954 -5.288294 8.14996 0.8410717 12.86539 -7.563752 -0.4472892 21.49039 8.380625 6.821848 -18.3754 6.03856 5.680942 -22.76141 11.05593 86.66313 37.8009 -19.80855 -0 0 19.8546 -9.383496 5.369328 1.288358 8.589573 -25.98424 -4.122528 -93.25824 15.12447 22.85211 0 0 -14.48788 18.36601 11.75914 -8.208974
-1525.162 99.70221 2005.258 -10.81801 -0.9686792 -96.23863 -2.470342 15.0429 -2.420325 -0 50.89123 -0 -16.2858 12.962 5.475743 -6.144043 -6.771558 -15.34386 -0 17.81216 -0 -0.9135267 -7.988577 21.79304 -5.186035 -5.287355 8.145128 0.8456311 12.85686 -7.570167 -0.4474097 21.4844 8.383491 6.817753 -18.38816 6.044737 5.677754 -22.75955 11.05995 86.66299 37.79202 -19.80899 -0 0 19.8563 -9.385677 5.37357 1.290889 8.595258 -25.98278 -4.10462 -93.25718 15.12262 22.8487 0 0 -14.48602 18.36119 11.77047 -8.211646
-1530.896 101.1797 2005.488 -11.15074 -0.492123 -95.50262 -1.801752 8.371307 -2.666271 -0 55.26477 -0 -16.59495 14.95451 5.159788 -5.82182 -2.648045 -14.70264 -0 17.19526 -0 0.1144741 -9.202398 21.19267 -5.181797 -5.286289 8.139345 0.8511374 12.8465 -7.577975 -0.4476344 21.47714 8.386988 6.812845 -18.40338 6.052069 5.673863 -22.7574 11.06489 86.66274 37.78105 -19.80945 -0 0 19.8586 -9.388464 5.378551 1.293965 8.602144 -25.98112 -4.082913 -93.25601 15.12008 22.84495 0 0 -14.4833 18.3553 11.78433 -8.214825
